<svg xmlns="http://www.w3.org/2000/svg" viewBox="0 0 64 64" fill="none">
  <!-- Lightbulb outer shape -->
  <path d="M32 4C21.5 4 13 12.5 13 23c0 6.5 3.2 12.2 8 15.7V44a3 3 0 003 3h16a3 3 0 003-3v-5.3c4.8-3.5 8-9.2 8-15.7C51 12.5 42.5 4 32 4z" stroke="#0066FF" stroke-width="2.5" stroke-linecap="round" stroke-linejoin="round"/>
  <!-- Bulb base -->
  <path d="M24 50h16M26 54h12" stroke="#0066FF" stroke-width="2.5" stroke-linecap="round"/>
  <!-- Maze paths inside bulb -->
  <!-- Outer ring -->
  <path d="M22 23a10 10 0 0110-10" stroke="#FF6B35" stroke-width="2" stroke-linecap="round"/>
  <path d="M42 23a10 10 0 00-10-10" stroke="#FF6B35" stroke-width="2" stroke-linecap="round"/>
  <!-- Inner paths -->
  <path d="M26 23a6 6 0 016-6" stroke="#FF6B35" stroke-width="2" stroke-linecap="round"/>
  <path d="M38 23a6 6 0 00-6-6" stroke="#FF6B35" stroke-width="2" stroke-linecap="round"/>
  <!-- Solution path (filament) - glowing line from center to top -->
  <path d="M32 30V17" stroke="#00D97E" stroke-width="2.5" stroke-linecap="round"/>
  <!-- Center dot (aha moment) -->
  <circle cx="32" cy="14" r="2.5" fill="#00D97E"/>
  <!-- Small maze dead-ends -->
  <path d="M26 28h-3M38 28h3M22 20v-3M42 20v-3" stroke="#FF6B35" stroke-width="1.5" stroke-linecap="round" opacity="0.6"/>
</svg>
